{
    "asset" : {
        "generator" : "Khronos glTF Blender I/O v3.2.40",
        "version" : "2.0"
    },
    "scene" : 0,
    "scenes" : [
        {
            "name" : "Scene0",
            "nodes" : [
                0
            ]
        },
        {
            "name" : "Scene1",
            "nodes" : [
                1
            ]
        },
        {
            "name" : "Scene2",
            "nodes" : [
                2
            ]
        },
        {
            "name" : "Scene3",
            "nodes" : [
                3
            ]
        },
        {
            "name" : "Scene4",
            "nodes" : [
                4,
                5,
                6,
                7
            ]
        }
    ],
    "nodes" : [
        {
            "mesh" : 0,
            "name" : "p1",
            "rotation" : [
                0.7071068286895752,
                0,
                0,
                0.7071067094802856
            ],
            "translation" : [
                -0.12812724709510803,
                -0.16250213980674744,
                -0.30316925048828125
            ]
        },
        {
            "mesh" : 1,
            "name" : "p2.002",
            "rotation" : [
                0.7071068286895752,
                0,
                0,
                0.7071067094802856
            ],
            "translation" : [
                -0.14024227857589722,
                0.1950680911540985,
                -0.08274614065885544
            ]
        },
        {
            "mesh" : 2,
            "name" : "p3.003",
            "rotation" : [
                0.7071068286895752,
                0,
                0,
                0.7071067094802856
            ],
            "translation" : [
                0.0597400926053524,
                -0.000841596454847604,
                -0.018344471231102943
            ]
        },
        {
            "mesh" : 3,
            "name" : "p4.004",
            "rotation" : [
                0.7071068286895752,
                0,
                0,
                0.7071067094802856
            ],
            "translation" : [
                -0.3346495032310486,
                -0.004051431082189083,
                -0.0013265684247016907
            ]
        },
        {
            "mesh" : 4,
            "name" : "p1.005",
            "rotation" : [
                0.7071068286895752,
                0,
                0,
                0.7071067094802856
            ],
            "translation" : [
                -0.12812724709510803,
                -0.16250213980674744,
                -0.30316925048828125
            ]
        },
        {
            "mesh" : 5,
            "name" : "p2.005",
            "rotation" : [
                0.7071068286895752,
                0,
                0,
                0.7071067094802856
            ],
            "translation" : [
                -0.14024227857589722,
                0.1950680911540985,
                -0.08274614065885544
            ]
        },
        {
            "mesh" : 6,
            "name" : "p3.005",
            "rotation" : [
                0.7071068286895752,
                0,
                0,
                0.7071067094802856
            ],
            "translation" : [
                0.0597400926053524,
                -0.000841596454847604,
                -0.018344471231102943
            ]
        },
        {
            "mesh" : 7,
            "name" : "p4.005",
            "rotation" : [
                0.7071068286895752,
                0,
                0,
                0.7071067094802856
            ],
            "translation" : [
                -0.3346495032310486,
                -0.004051431082189083,
                -0.0013265684247016907
            ]
        }
    ],
    "meshes" : [
        {
            "name" : "New object.002",
            "primitives" : [
                {
                    "attributes" : {
                        "POSITION" : 0,
                        "NORMAL" : 1
                    },
                    "indices" : 2
                }
            ]
        },
        {
            "name" : "New object.014",
            "primitives" : [
                {
                    "attributes" : {
                        "POSITION" : 3,
                        "NORMAL" : 4
                    },
                    "indices" : 5
                }
            ]
        },
        {
            "name" : "New object.019",
            "primitives" : [
                {
                    "attributes" : {
                        "POSITION" : 6,
                        "NORMAL" : 7
                    },
                    "indices" : 8
                }
            ]
        },
        {
            "name" : "New object.024",
            "primitives" : [
                {
                    "attributes" : {
                        "POSITION" : 9,
                        "NORMAL" : 10
                    },
                    "indices" : 11
                }
            ]
        },
        {
            "name" : "New object.025",
            "primitives" : [
                {
                    "attributes" : {
                        "POSITION" : 12,
                        "NORMAL" : 13
                    },
                    "indices" : 2
                }
            ]
        },
        {
            "name" : "New object.026",
            "primitives" : [
                {
                    "attributes" : {
                        "POSITION" : 14,
                        "NORMAL" : 15
                    },
                    "indices" : 5
                }
            ]
        },
        {
            "name" : "New object.027",
            "primitives" : [
                {
                    "attributes" : {
                        "POSITION" : 16,
                        "NORMAL" : 17
                    },
                    "indices" : 8
                }
            ]
        },
        {
            "name" : "New object.028",
            "primitives" : [
                {
                    "attributes" : {
                        "POSITION" : 18,
                        "NORMAL" : 19
                    },
                    "indices" : 11
                }
            ]
        }
    ],
    "accessors" : [
        {
            "bufferView" : 0,
            "componentType" : 5126,
            "count" : 30,
            "max" : [
                0.5,
                0.27323347330093384,
                0.3329433500766754
            ],
            "min" : [
                -0.5,
                -0.27323347330093384,
                -0.3329433500766754
            ],
            "type" : "VEC3"
        },
        {
            "bufferView" : 1,
            "componentType" : 5126,
            "count" : 30,
            "type" : "VEC3"
        },
        {
            "bufferView" : 2,
            "componentType" : 5123,
            "count" : 48,
            "type" : "SCALAR"
        },
        {
            "bufferView" : 3,
            "componentType" : 5126,
            "count" : 36,
            "max" : [
                0.5,
                0.5,
                0.3027009963989258
            ],
            "min" : [
                -0.5,
                -0.5,
                -0.3027009963989258
            ],
            "type" : "VEC3"
        },
        {
            "bufferView" : 4,
            "componentType" : 5126,
            "count" : 36,
            "type" : "VEC3"
        },
        {
            "bufferView" : 5,
            "componentType" : 5123,
            "count" : 60,
            "type" : "SCALAR"
        },
        {
            "bufferView" : 6,
            "componentType" : 5126,
            "count" : 30,
            "max" : [
                0.30605068802833557,
                0.4168194830417633,
                0.5
            ],
            "min" : [
                -0.30605068802833557,
                -0.4168194830417633,
                -0.5
            ],
            "type" : "VEC3"
        },
        {
            "bufferView" : 7,
            "componentType" : 5126,
            "count" : 30,
            "type" : "VEC3"
        },
        {
            "bufferView" : 8,
            "componentType" : 5123,
            "count" : 48,
            "type" : "SCALAR"
        },
        {
            "bufferView" : 9,
            "componentType" : 5126,
            "count" : 30,
            "max" : [
                0.2875727713108063,
                0.4262044429779053,
                0.5
            ],
            "min" : [
                -0.2875727713108063,
                -0.4262044429779053,
                -0.5
            ],
            "type" : "VEC3"
        },
        {
            "bufferView" : 10,
            "componentType" : 5126,
            "count" : 30,
            "type" : "VEC3"
        },
        {
            "bufferView" : 11,
            "componentType" : 5123,
            "count" : 48,
            "type" : "SCALAR"
        },
        {
            "bufferView" : 12,
            "componentType" : 5126,
            "count" : 30,
            "max" : [
                0.5,
                0.27323347330093384,
                0.3329433500766754
            ],
            "min" : [
                -0.5,
                -0.27323347330093384,
                -0.3329433500766754
            ],
            "type" : "VEC3"
        },
        {
            "bufferView" : 13,
            "componentType" : 5126,
            "count" : 30,
            "type" : "VEC3"
        },
        {
            "bufferView" : 14,
            "componentType" : 5126,
            "count" : 36,
            "max" : [
                0.5,
                0.5,
                0.3027009963989258
            ],
            "min" : [
                -0.5,
                -0.5,
                -0.3027009963989258
            ],
            "type" : "VEC3"
        },
        {
            "bufferView" : 15,
            "componentType" : 5126,
            "count" : 36,
            "type" : "VEC3"
        },
        {
            "bufferView" : 16,
            "componentType" : 5126,
            "count" : 30,
            "max" : [
                0.30605068802833557,
                0.4168194830417633,
                0.5
            ],
            "min" : [
                -0.30605068802833557,
                -0.4168194830417633,
                -0.5
            ],
            "type" : "VEC3"
        },
        {
            "bufferView" : 17,
            "componentType" : 5126,
            "count" : 30,
            "type" : "VEC3"
        },
        {
            "bufferView" : 18,
            "componentType" : 5126,
            "count" : 30,
            "max" : [
                0.2875727713108063,
                0.4262044429779053,
                0.5
            ],
            "min" : [
                -0.2875727713108063,
                -0.4262044429779053,
                -0.5
            ],
            "type" : "VEC3"
        },
        {
            "bufferView" : 19,
            "componentType" : 5126,
            "count" : 30,
            "type" : "VEC3"
        }
    ],
    "bufferViews" : [
        {
            "buffer" : 0,
            "byteLength" : 360,
            "byteOffset" : 0
        },
        {
            "buffer" : 0,
            "byteLength" : 360,
            "byteOffset" : 360
        },
        {
            "buffer" : 0,
            "byteLength" : 96,
            "byteOffset" : 720
        },
        {
            "buffer" : 0,
            "byteLength" : 432,
            "byteOffset" : 816
        },
        {
            "buffer" : 0,
            "byteLength" : 432,
            "byteOffset" : 1248
        },
        {
            "buffer" : 0,
            "byteLength" : 120,
            "byteOffset" : 1680
        },
        {
            "buffer" : 0,
            "byteLength" : 360,
            "byteOffset" : 1800
        },
        {
            "buffer" : 0,
            "byteLength" : 360,
            "byteOffset" : 2160
        },
        {
            "buffer" : 0,
            "byteLength" : 96,
            "byteOffset" : 2520
        },
        {
            "buffer" : 0,
            "byteLength" : 360,
            "byteOffset" : 2616
        },
        {
            "buffer" : 0,
            "byteLength" : 360,
            "byteOffset" : 2976
        },
        {
            "buffer" : 0,
            "byteLength" : 96,
            "byteOffset" : 3336
        },
        {
            "buffer" : 0,
            "byteLength" : 360,
            "byteOffset" : 3432
        },
        {
            "buffer" : 0,
            "byteLength" : 360,
            "byteOffset" : 3792
        },
        {
            "buffer" : 0,
            "byteLength" : 432,
            "byteOffset" : 4152
        },
        {
            "buffer" : 0,
            "byteLength" : 432,
            "byteOffset" : 4584
        },
        {
            "buffer" : 0,
            "byteLength" : 360,
            "byteOffset" : 5016
        },
        {
            "buffer" : 0,
            "byteLength" : 360,
            "byteOffset" : 5376
        },
        {
            "buffer" : 0,
            "byteLength" : 360,
            "byteOffset" : 5736
        },
        {
            "buffer" : 0,
            "byteLength" : 360,
            "byteOffset" : 6096
        }
    ],
    "buffers" : [
        {
            "byteLength" : 6456,
            "uri" : "cube.bin"
        }
    ]
}
