{
    "asset" : {
        "generator" : "Khronos glTF Blender I/O v3.2.40",
        "version" : "2.0"
    },
    "scene" : 0,
    "scenes" : [
        {
            "name" : "Scene",
            "nodes" : [
                0,
                1
            ]
        }
    ],
    "nodes" : [
        {
            "mesh" : 0,
            "name" : "Sphere",
            "scale" : [
                0.5,
                0.5,
                0.5
            ]
        },
        {
            "mesh" : 1,
            "name" : "Cube",
            "rotation" : [
                -0.009906106628477573,
                0,
                0,
                0.9999509453773499
            ],
            "scale" : [
                0.40383678674697876,
                0.16196297109127045,
                0.16196297109127045
            ],
            "translation" : [
                0,
                1.1237276792526245,
                -0.2874044179916382
            ]
        }
    ],
    "materials" : [
        {
            "doubleSided" : true,
            "name" : "Material.001",
            "pbrMetallicRoughness" : {
                "baseColorFactor" : [
                    0.4072321057319641,
                    0.8000000715255737,
                    0.2328493595123291,
                    1
                ],
                "metallicFactor" : 0,
                "roughnessFactor" : 0.5
            }
        },
        {
            "doubleSided" : true,
            "name" : "Material.002",
            "pbrMetallicRoughness" : {
                "baseColorFactor" : [
                    0.8000000715255737,
                    0.01857166551053524,
                    0,
                    1
                ],
                "metallicFactor" : 0,
                "roughnessFactor" : 0.5
            }
        }
    ],
    "meshes" : [
        {
            "name" : "Sphere.002",
            "primitives" : [
                {
                    "attributes" : {
                        "POSITION" : 0,
                        "NORMAL" : 1,
                        "TEXCOORD_0" : 2
                    },
                    "indices" : 3,
                    "material" : 0
                }
            ]
        },
        {
            "name" : "Cube.001",
            "primitives" : [
                {
                    "attributes" : {
                        "POSITION" : 4,
                        "NORMAL" : 5,
                        "TEXCOORD_0" : 6
                    },
                    "indices" : 7,
                    "material" : 1
                }
            ]
        }
    ],
    "accessors" : [
        {
            "bufferView" : 0,
            "componentType" : 5126,
            "count" : 2840,
            "max" : [
                1.0000139474868774,
                2.9262633323669434,
                0.9999994039535522
            ],
            "min" : [
                -0.9999847412109375,
                -1,
                -0.9999987483024597
            ],
            "type" : "VEC3"
        },
        {
            "bufferView" : 1,
            "componentType" : 5126,
            "count" : 2840,
            "type" : "VEC3"
        },
        {
            "bufferView" : 2,
            "componentType" : 5126,
            "count" : 2840,
            "type" : "VEC2"
        },
        {
            "bufferView" : 3,
            "componentType" : 5123,
            "count" : 2880,
            "type" : "SCALAR"
        },
        {
            "bufferView" : 4,
            "componentType" : 5126,
            "count" : 24,
            "max" : [
                1,
                1,
                1
            ],
            "min" : [
                -1,
                -1,
                -1
            ],
            "type" : "VEC3"
        },
        {
            "bufferView" : 5,
            "componentType" : 5126,
            "count" : 24,
            "type" : "VEC3"
        },
        {
            "bufferView" : 6,
            "componentType" : 5126,
            "count" : 24,
            "type" : "VEC2"
        },
        {
            "bufferView" : 7,
            "componentType" : 5123,
            "count" : 36,
            "type" : "SCALAR"
        }
    ],
    "bufferViews" : [
        {
            "buffer" : 0,
            "byteLength" : 34080,
            "byteOffset" : 0
        },
        {
            "buffer" : 0,
            "byteLength" : 34080,
            "byteOffset" : 34080
        },
        {
            "buffer" : 0,
            "byteLength" : 22720,
            "byteOffset" : 68160
        },
        {
            "buffer" : 0,
            "byteLength" : 5760,
            "byteOffset" : 90880
        },
        {
            "buffer" : 0,
            "byteLength" : 288,
            "byteOffset" : 96640
        },
        {
            "buffer" : 0,
            "byteLength" : 288,
            "byteOffset" : 96928
        },
        {
            "buffer" : 0,
            "byteLength" : 192,
            "byteOffset" : 97216
        },
        {
            "buffer" : 0,
            "byteLength" : 72,
            "byteOffset" : 97408
        }
    ],
    "buffers" : [
        {
            "byteLength" : 97480,
            "uri" : "capsule.bin"
        }
    ]
}
